# xmcd
#
# Track frame offsets:
#	182
#	16102
#	30060
#	40472
#	60032
#	70305
#	87515
#	122552
#	134302
#	145687
#	156935
#
# Disc length: 2235 seconds
#
# Revision: 1
# Processed by: cddbd v1.5.2PL0 Copyright (c) Steve Scherf et al.
# Submitted via: audiograbber 1.83.01
#
DISCID=8308b90b
DTITLE=Ohio Players - Observations In time
DYEAR=1968
DGENRE=Soul
TTITLE0=Here Today And Gone Tomorrow
TTITLE1=Mother-In-Law
TTITLE2=Stop Lying To Yourself
TTITLE3=Over The Rainbow
TTITLE4=Find Someone To Love
TTITLE5=Cold Cold World
TTITLE6=Summertime
TTITLE7=Bad Bargain
TTITLE8=The Man I Am
TTITLE9=Lonely Street
TTITLE10=Street Party
EXTD=
EXTT0=
EXTT1=
EXTT2=
EXTT3=
EXTT4=
EXTT5=
EXTT6=
EXTT7=
EXTT8=
EXTT9=
EXTT10=
PLAYORDER=
